<svg xmlns="http://www.w3.org/2000/svg" xmlns:xlink="http://www.w3.org/1999/xlink" width="200" zoomAndPan="magnify" viewBox="0 0 375 374.999991" height="200" preserveAspectRatio="xMidYMid meet" version="1.0"><defs><g/><clipPath id="a52ae83272"><path d="M 93 65 L 272.882812 65 L 272.882812 226 L 93 226 Z M 93 65 " clip-rule="nonzero"/></clipPath></defs><rect x="-37.5" width="450" fill="#ffffff" y="-37.499999" height="449.999989" fill-opacity="1"/><rect x="-37.5" width="450" fill="#000000" y="-37.499999" height="449.999989" fill-opacity="1"/><g clip-path="url(#a52ae83272)"><path fill="#ffffff" d="M 209.097656 215.90625 C 219.386719 225.921875 237.007812 229.699219 252.042969 221.597656 C 263.277344 215.53125 273.21875 203.082031 272.003906 185.433594 C 271.183594 173.480469 250.527344 139.378906 238.847656 120.214844 C 230.023438 105.726562 222.667969 90.019531 210.214844 78.160156 C 184.339844 53.554688 152.328125 67.871094 141.765625 94.566406 C 150.636719 89.769531 157.25 86.5625 173.03125 89.273438 C 201.839844 94.21875 216.550781 133.464844 229.949219 156.828125 C 233.203125 162.492188 236.386719 168.0625 239.839844 173.976562 C 242.003906 177.679688 244.464844 182.027344 245.484375 186.179688 C 248.292969 197.636719 237.007812 203.777344 227.339844 195.648438 C 214.664062 184.988281 201.863281 155.707031 195.75 144.820312 C 185.808594 127.074219 173.851562 108.660156 148.226562 112.984375 C 122.628906 117.332031 112.335938 144.027344 98.46875 168.65625 C 82.386719 197.164062 104.335938 229.921875 136.445312 225.425781 C 145.890625 224.105469 152.402344 219.882812 157.472656 214.339844 C 160.929688 210.585938 168.210938 199.824219 170.097656 194.976562 L 155.511719 169.75 C 155.261719 169.972656 155.136719 170.171875 154.390625 171.066406 L 144.699219 187.523438 C 133.710938 206.3125 118.203125 201.6875 119.222656 189.0625 C 119.941406 179.71875 129.089844 167.117188 131.921875 162.292969 C 140.300781 147.976562 152.976562 124.886719 168.0625 148.523438 C 170.820312 152.875 173.851562 158.664062 175.890625 162.144531 C 177.855469 165.476562 179.394531 168.285156 181.308594 171.640625 C 190.207031 185.558594 197.6875 204.796875 209.097656 215.90625 Z M 209.097656 215.90625 " fill-opacity="1" fill-rule="evenodd"/></g><g fill="#ffffff" fill-opacity="1"><g transform="translate(89.12756, 279.210971)"><g><path d="M 0.589844 0 L 6.554688 0 L 7.582031 -2.835938 L 16.308594 -2.835938 L 17.375 0 L 23.304688 0 L 12.222656 -27.277344 L 11.671875 -27.277344 Z M 9.496094 -7.769531 L 11.964844 -14.613281 L 14.359375 -7.769531 Z M 9.496094 -7.769531 "/></g></g></g><g fill="#ffffff" fill-opacity="1"><g transform="translate(122.996456, 279.210971)"><g><path d="M 10.785156 -26.320312 L 2.945312 -26.320312 L 2.945312 0 L 10.785156 0 C 28.308594 0 28.308594 -26.320312 10.785156 -26.320312 Z M 10.785156 -21.058594 C 21.019531 -21.058594 21.019531 -5.265625 10.785156 -5.265625 L 8.210938 -5.265625 L 8.210938 -21.058594 Z M 10.785156 -21.058594 "/></g></g></g><g fill="#ffffff" fill-opacity="1"><g transform="translate(158.742771, 279.210971)"><g><path d="M 0.589844 0 L 6.554688 0 L 7.582031 -2.835938 L 16.308594 -2.835938 L 17.375 0 L 23.304688 0 L 12.222656 -27.277344 L 11.671875 -27.277344 Z M 9.496094 -7.769531 L 11.964844 -14.613281 L 14.359375 -7.769531 Z M 9.496094 -7.769531 "/></g></g></g><g fill="#ffffff" fill-opacity="1"><g transform="translate(192.611667, 279.210971)"><g><path d="M 16.085938 -21.058594 L 16.085938 -26.320312 L 2.945312 -26.320312 L 2.945312 0 L 8.210938 0 L 8.210938 -10.527344 L 14.910156 -10.527344 L 14.910156 -15.792969 L 8.210938 -15.792969 L 8.210938 -21.058594 Z M 16.085938 -21.058594 "/></g></g></g><g fill="#ffffff" fill-opacity="1"><g transform="translate(219.928016, 279.210971)"><g><path d="M 16.566406 0 L 16.566406 -5.265625 L 8.210938 -5.265625 L 8.210938 -10.527344 L 15.128906 -10.527344 L 15.128906 -15.792969 L 8.210938 -15.792969 L 8.210938 -21.058594 L 16.125 -21.058594 L 16.125 -26.320312 L 2.945312 -26.320312 L 2.945312 0 Z M 16.566406 0 "/></g></g></g><g fill="#ffffff" fill-opacity="1"><g transform="translate(248.31192, 279.210971)"><g><path d="M 2.945312 -26.320312 L 2.945312 0 L 16.566406 0 L 16.566406 -5.265625 L 8.210938 -5.265625 L 8.210938 -26.320312 Z M 2.945312 -26.320312 "/></g></g></g></svg>